<?xml version="1.0" encoding="UTF-8" standalone="no"?>
<svg
   xmlns:dc="http://purl.org/dc/elements/1.1/"
   xmlns:cc="http://creativecommons.org/ns#"
   xmlns:rdf="http://www.w3.org/1999/02/22-rdf-syntax-ns#"
   xmlns:svg="http://www.w3.org/2000/svg"
   xmlns="http://www.w3.org/2000/svg"
   xmlns:sodipodi="http://sodipodi.sourceforge.net/DTD/sodipodi-0.dtd"
   xmlns:inkscape="http://www.inkscape.org/namespaces/inkscape"
   version="1.1"
   id="Capa_1"
   x="0px"
   y="0px"
   width="98.148px"
   height="98.148px"
   viewBox="0 0 98.148 98.148"
   style="enable-background:new 0 0 98.148 98.148;"
   xml:space="preserve"
   sodipodi:docname="angle.svg"
   inkscape:version="1.0.2 (e86c870879, 2021-01-15)"><metadata
   id="metadata41"><rdf:RDF><cc:Work
       rdf:about=""><dc:format>image/svg+xml</dc:format><dc:type
         rdf:resource="http://purl.org/dc/dcmitype/StillImage" /></cc:Work></rdf:RDF></metadata><defs
   id="defs39" /><sodipodi:namedview
   pagecolor="#ffffff"
   bordercolor="#666666"
   borderopacity="1"
   objecttolerance="10"
   gridtolerance="10"
   guidetolerance="10"
   inkscape:pageopacity="0"
   inkscape:pageshadow="2"
   inkscape:window-width="1366"
   inkscape:window-height="745"
   id="namedview37"
   showgrid="false"
   inkscape:zoom="2.9445327"
   inkscape:cx="45.130392"
   inkscape:cy="46.224564"
   inkscape:window-x="-8"
   inkscape:window-y="-8"
   inkscape:window-maximized="1"
   inkscape:current-layer="Capa_1" />
<g
   id="g4"
   style="fill:#acb0b9;fill-opacity:1">
	<path
   d="M33.458,97.562L80.531,50.49c0.75-0.75,0.75-2.078,0-2.828L33.456,0.586C33.081,0.211,32.572,0,32.042,0   c-0.53,0-1.039,0.211-1.414,0.586L17.641,13.573c-0.391,0.391-0.586,0.902-0.586,1.414c0,0.512,0.195,1.023,0.586,1.414   l32.674,32.674L17.642,81.75c-0.751,0.75-0.75,2.078,0,2.828l12.987,12.984C31.411,98.344,32.677,98.344,33.458,97.562z"
   id="path2"
   style="fill:#acb0b9;fill-opacity:1" />
</g>
<g
   id="g6">
</g>
<g
   id="g8">
</g>
<g
   id="g10">
</g>
<g
   id="g12">
</g>
<g
   id="g14">
</g>
<g
   id="g16">
</g>
<g
   id="g18">
</g>
<g
   id="g20">
</g>
<g
   id="g22">
</g>
<g
   id="g24">
</g>
<g
   id="g26">
</g>
<g
   id="g28">
</g>
<g
   id="g30">
</g>
<g
   id="g32">
</g>
<g
   id="g34">
</g>
</svg>
