<?xml version="1.0" encoding="UTF-8" standalone="no"?>
<svg
   xmlns:dc="http://purl.org/dc/elements/1.1/"
   xmlns:cc="http://creativecommons.org/ns#"
   xmlns:rdf="http://www.w3.org/1999/02/22-rdf-syntax-ns#"
   xmlns:svg="http://www.w3.org/2000/svg"
   xmlns="http://www.w3.org/2000/svg"
   xmlns:sodipodi="http://sodipodi.sourceforge.net/DTD/sodipodi-0.dtd"
   xmlns:inkscape="http://www.inkscape.org/namespaces/inkscape"
   id="Capa_1"
   enable-background="new 0 0 512 512"
   height="512"
   viewBox="0 0 512 512"
   width="512"
   version="1.1"
   sodipodi:docname="documents.svg"
   inkscape:version="1.0.2 (e86c870879, 2021-01-15)">
  <metadata
     id="metadata15">
    <rdf:RDF>
      <cc:Work
         rdf:about="">
        <dc:format>image/svg+xml</dc:format>
        <dc:type
           rdf:resource="http://purl.org/dc/dcmitype/StillImage" />
      </cc:Work>
    </rdf:RDF>
  </metadata>
  <defs
     id="defs13" />
  <sodipodi:namedview
     pagecolor="#ffffff"
     bordercolor="#666666"
     borderopacity="1"
     objecttolerance="10"
     gridtolerance="10"
     guidetolerance="10"
     inkscape:pageopacity="0"
     inkscape:pageshadow="2"
     inkscape:window-width="1366"
     inkscape:window-height="745"
     id="namedview11"
     showgrid="false"
     inkscape:zoom="0.56445313"
     inkscape:cx="190.28366"
     inkscape:cy="245.80567"
     inkscape:window-x="-8"
     inkscape:window-y="-8"
     inkscape:window-maximized="1"
     inkscape:current-layer="Capa_1" />
  <g
     id="g8"
     style="fill:#acb0b9;fill-opacity:1"
     transform="matrix(0.85272594,0,0,1,39.478792,0)">
    <path
       d="M 398.847,497 H 45.789 c -6.904,0 -12.521,-5.617 -12.521,-12.52 V 281.396 c 0,-4.142 -3.357,-7.5 -7.5,-7.5 -4.143,0 -7.5,3.358 -7.5,7.5 V 484.48 c 0,15.175 12.346,27.52 27.521,27.52 h 353.058 c 4.143,0 7.5,-3.358 7.5,-7.5 0,-4.142 -3.358,-7.5 -7.5,-7.5 z"
       id="path2"
       style="fill:#acb0b9;fill-opacity:1" />
    <path
       d="m 188.239,249.415 c 1.294,2.473 3.854,4.023 6.646,4.023 h 271.327 c 6.903,0 12.52,5.617 12.52,12.521 V 484.48 c 0,6.903 -5.616,12.52 -12.52,12.52 h -32.365 c -4.143,0 -7.5,3.358 -7.5,7.5 0,4.142 3.357,7.5 7.5,7.5 h 32.365 c 15.175,0 27.52,-12.345 27.52,-27.52 V 265.958 c 0,-15.175 -12.345,-27.521 -27.52,-27.521 H 444.108 V 126.931 c 0,-1.912 -0.745,-3.852 -2.196,-5.303 L 399.161,78.877 V 22.515 C 399.161,10.1 389.061,0 376.646,0 H 84.281 C 71.866,0 61.767,10.1 61.767,22.515 V 188.808 H 40.783 c -12.415,0 -22.515,10.1 -22.515,22.515 v 34.961 c 0,4.142 3.357,7.5 7.5,7.5 4.143,0 7.5,-3.358 7.5,-7.5 v -34.961 c 0,-4.144 3.371,-7.515 7.515,-7.515 h 119.044 c 2.806,0 5.357,1.544 6.658,4.031 9.921,18.96 12.123,23.169 21.754,41.576 z M 358.184,59.112 c 6.932,6.932 50.953,50.953 60.318,60.318 h -47.063 c -7.309,0 -13.255,-5.946 -13.255,-13.255 z M 76.767,22.515 C 76.767,18.371 80.138,15 84.282,15 h 292.364 c 4.145,0 7.516,3.371 7.516,7.515 V 63.876 L 355.988,35.702 c -1.328,-1.328 -3.242,-2.197 -5.304,-2.197 H 141.892 c -15.58,0 -28.255,12.675 -28.255,28.255 v 127.048 h -36.87 z m 122.658,215.923 -7.75,-14.812 h 195.562 c 4.143,0 7.5,-3.358 7.5,-7.5 0,-4.142 -3.357,-7.5 -7.5,-7.5 h -203.41 l -4.05,-7.741 c -3.897,-7.449 -11.542,-12.077 -19.949,-12.077 h -31.19 V 61.761 c 0,-7.309 5.946,-13.255 13.255,-13.255 h 201.292 v 57.67 c 0,15.58 12.675,28.255 28.255,28.255 h 57.67 v 104.007 z"
       id="path4"
       style="fill:#acb0b9;fill-opacity:1" />
    <path
       d="m 387.237,158.956 h -215.85 c -4.143,0 -7.5,3.358 -7.5,7.5 0,4.142 3.357,7.5 7.5,7.5 h 215.85 c 4.143,0 7.5,-3.358 7.5,-7.5 0,-4.142 -3.357,-7.5 -7.5,-7.5 z"
       id="path6"
       style="fill:#acb0b9;fill-opacity:1" />
  </g>
</svg>
