<?xml version="1.0" encoding="UTF-8" standalone="no"?>
<svg
   xmlns:dc="http://purl.org/dc/elements/1.1/"
   xmlns:cc="http://creativecommons.org/ns#"
   xmlns:rdf="http://www.w3.org/1999/02/22-rdf-syntax-ns#"
   xmlns:svg="http://www.w3.org/2000/svg"
   xmlns="http://www.w3.org/2000/svg"
   xmlns:sodipodi="http://sodipodi.sourceforge.net/DTD/sodipodi-0.dtd"
   xmlns:inkscape="http://www.inkscape.org/namespaces/inkscape"
   height="384pt"
   viewBox="0 0 384 384"
   width="384pt"
   version="1.1"
   id="svg6"
   sodipodi:docname="image.svg"
   inkscape:version="1.0.2 (e86c870879, 2021-01-15)">
  <metadata
     id="metadata12">
    <rdf:RDF>
      <cc:Work
         rdf:about="">
        <dc:format>image/svg+xml</dc:format>
        <dc:type
           rdf:resource="http://purl.org/dc/dcmitype/StillImage" />
      </cc:Work>
    </rdf:RDF>
  </metadata>
  <defs
     id="defs10" />
  <sodipodi:namedview
     pagecolor="#ffffff"
     bordercolor="#666666"
     borderopacity="1"
     objecttolerance="10"
     gridtolerance="10"
     guidetolerance="10"
     inkscape:pageopacity="0"
     inkscape:pageshadow="2"
     inkscape:window-width="1366"
     inkscape:window-height="745"
     id="namedview8"
     showgrid="false"
     inkscape:zoom="0.56445313"
     inkscape:cx="119.71362"
     inkscape:cy="256.76184"
     inkscape:window-x="-8"
     inkscape:window-y="-8"
     inkscape:window-maximized="1"
     inkscape:current-layer="svg6"
     inkscape:document-rotation="0" />
  <path
     d="m336 0h-288c-26.472656 0-48 21.527344-48 48v288c0 26.472656 21.527344 48 48 48h288c26.472656 0 48-21.527344 48-48v-288c0-26.472656-21.527344-48-48-48zm-288 32h288c8.824219 0 16 7.175781 16 16v113.375l-52.6875-52.6875c-6.25-6.246094-16.375-6.246094-22.625 0l-112.6875 112.6875-40.6875-40.6875c-6.25-6.246094-16.375-6.246094-22.625 0l-68.6875 68.6875v-201.375c0-8.824219 7.175781-16 16-16zm288 320h-288c-8.824219 0-16-7.175781-16-16v-41.375l80-80 92.6875 92.679688c3.128906 3.136718 7.214844 4.695312 11.3125 4.695312s8.183594-1.558594 11.3125-4.6875c6.246094-6.25 6.246094-16.375 0-22.625l-40.6875-40.6875 101.375-101.367188 64 64v129.367188c0 8.824219-7.175781 16-16 16zm0 0"
     id="path2"
     style="fill:#acb0b9;fill-opacity:1" />
  <path
     d="m128 96c0 17.671875-14.328125 32-32 32s-32-14.328125-32-32 14.328125-32 32-32 32 14.328125 32 32zm0 0"
     id="path4"
     style="fill:#acb0b9;fill-opacity:1" />
</svg>
