<?xml version="1.0" encoding="UTF-8" standalone="no"?>
<svg
   xmlns:dc="http://purl.org/dc/elements/1.1/"
   xmlns:cc="http://creativecommons.org/ns#"
   xmlns:rdf="http://www.w3.org/1999/02/22-rdf-syntax-ns#"
   xmlns:svg="http://www.w3.org/2000/svg"
   xmlns="http://www.w3.org/2000/svg"
   xmlns:sodipodi="http://sodipodi.sourceforge.net/DTD/sodipodi-0.dtd"
   xmlns:inkscape="http://www.inkscape.org/namespaces/inkscape"
   version="1.1"
   id="Capa_1"
   x="0px"
   y="0px"
   viewBox="0 0 415.963 415.963"
   style="enable-background:new 0 0 415.963 415.963;"
   xml:space="preserve"
   sodipodi:docname="music.svg"
   inkscape:version="1.0.2 (e86c870879, 2021-01-15)"><metadata
   id="metadata39"><rdf:RDF><cc:Work
       rdf:about=""><dc:format>image/svg+xml</dc:format><dc:type
         rdf:resource="http://purl.org/dc/dcmitype/StillImage" /></cc:Work></rdf:RDF></metadata><defs
   id="defs37" /><sodipodi:namedview
   pagecolor="#ffffff"
   bordercolor="#666666"
   borderopacity="1"
   objecttolerance="10"
   gridtolerance="10"
   guidetolerance="10"
   inkscape:pageopacity="0"
   inkscape:pageshadow="2"
   inkscape:window-width="1366"
   inkscape:window-height="745"
   id="namedview35"
   showgrid="false"
   inkscape:zoom="0.98255784"
   inkscape:cx="170.17037"
   inkscape:cy="221.72949"
   inkscape:window-x="-8"
   inkscape:window-y="-8"
   inkscape:window-maximized="1"
   inkscape:current-layer="Capa_1"
   inkscape:document-rotation="0" />
<path
   d="M328.712,264.539c12.928-21.632,21.504-48.992,23.168-76.064c1.056-17.376-2.816-35.616-11.2-52.768  c-13.152-26.944-35.744-42.08-57.568-56.704c-16.288-10.912-31.68-21.216-42.56-35.936l-1.952-2.624  c-6.432-8.64-13.696-18.432-14.848-26.656c-1.152-8.32-8.704-14.24-16.96-13.76c-8.384,0.576-14.88,7.52-14.88,15.936v285.12  c-13.408-8.128-29.92-13.12-48-13.12c-44.096,0-80,28.704-80,64s35.904,64,80,64s80-28.704,80-64V165.467  c24.032,9.184,63.36,32.576,74.176,87.2c-2.016,2.976-3.936,6.176-6.176,8.736c-5.856,6.624-5.216,16.736,1.44,22.56  c6.592,5.888,16.704,5.184,22.56-1.44c4.288-4.864,8.096-10.56,11.744-16.512C328.04,265.563,328.393,265.083,328.712,264.539z"
   id="path2"
   style="fill:#acb0b9;fill-opacity:1" />
<g
   id="g4">
</g>
<g
   id="g6">
</g>
<g
   id="g8">
</g>
<g
   id="g10">
</g>
<g
   id="g12">
</g>
<g
   id="g14">
</g>
<g
   id="g16">
</g>
<g
   id="g18">
</g>
<g
   id="g20">
</g>
<g
   id="g22">
</g>
<g
   id="g24">
</g>
<g
   id="g26">
</g>
<g
   id="g28">
</g>
<g
   id="g30">
</g>
<g
   id="g32">
</g>
</svg>
