<?xml version="1.0" encoding="UTF-8" standalone="no"?>
<svg
   xmlns:dc="http://purl.org/dc/elements/1.1/"
   xmlns:cc="http://creativecommons.org/ns#"
   xmlns:rdf="http://www.w3.org/1999/02/22-rdf-syntax-ns#"
   xmlns:svg="http://www.w3.org/2000/svg"
   xmlns="http://www.w3.org/2000/svg"
   xmlns:sodipodi="http://sodipodi.sourceforge.net/DTD/sodipodi-0.dtd"
   xmlns:inkscape="http://www.inkscape.org/namespaces/inkscape"
   height="512pt"
   viewBox="0 0 512 512"
   width="512pt"
   version="1.1"
   id="svg14"
   sodipodi:docname="services.svg"
   inkscape:version="1.0.2 (e86c870879, 2021-01-15)">
  <metadata
     id="metadata20">
    <rdf:RDF>
      <cc:Work
         rdf:about="">
        <dc:format>image/svg+xml</dc:format>
        <dc:type
           rdf:resource="http://purl.org/dc/dcmitype/StillImage" />
      </cc:Work>
    </rdf:RDF>
  </metadata>
  <defs
     id="defs18" />
  <sodipodi:namedview
     pagecolor="#ffffff"
     bordercolor="#666666"
     borderopacity="1"
     objecttolerance="10"
     gridtolerance="10"
     guidetolerance="10"
     inkscape:pageopacity="0"
     inkscape:pageshadow="2"
     inkscape:window-width="1366"
     inkscape:window-height="745"
     id="namedview16"
     showgrid="false"
     inkscape:zoom="3.3867187"
     inkscape:cx="517.80487"
     inkscape:cy="104.26655"
     inkscape:window-x="-8"
     inkscape:window-y="-8"
     inkscape:window-maximized="1"
     inkscape:current-layer="svg14" />
  <path
     d="m 90.050781,395.94922 c -7.167969,0 -14.058593,1.78906 -20.171875,5.14844 C 37.675781,359.81641 20,308.53516 20,256 20,125.86719 125.86719,20 256,20 c 15.82031,0 31.63281,1.574219 47,4.679688 5.40625,1.09375 10.6875,-2.40625 11.78125,-7.820313 C 315.875,11.445312 312.375,6.171875 306.96094,5.074219 290.29297,1.707031 273.14844,0 256,0 187.62109,0 123.33203,26.628906 74.980469,74.980469 26.628906,123.33203 0,187.62109 0,256 c 0,57.51953 19.53125,113.65234 55.089844,158.65234 -4.578125,6.83985 -7.039063,14.87891 -7.039063,23.29688 0,11.21875 4.371094,21.76562 12.304688,29.69531 7.929687,7.93359 18.476562,12.30469 29.695312,12.30469 11.218749,0 21.765629,-4.3711 29.699219,-12.30469 7.93359,-7.92969 12.30078,-18.48047 12.30078,-29.69922 0,-11.21484 -4.36719,-21.76562 -12.30078,-29.69531 -7.93359,-7.93359 -18.48047,-12.30078 -29.699219,-12.30078 z m -0.05296,41.8315 v 0 0 0 0 0 0 z"
     id="path2"
     style="fill:#acb0b9;fill-opacity:1"
     sodipodi:nodetypes="scsscscssscscscscsccccccccc" />
  <path
     d="m 456.90234,97.335938 c 10.8711,-16.308594 9.125,-38.605469 -5.2539,-52.984376 -7.9336,-7.929687 -18.48047,-12.300781 -29.69922,-12.300781 -11.21875,0 -21.76563,4.371094 -29.69922,12.300781 -7.93359,7.933594 -12.30078,18.480469 -12.30078,29.699219 0,11.21875 4.36719,21.765625 12.30078,29.699219 7.93359,7.93359 18.48047,12.30078 29.69922,12.30078 7.16797,0 14.05859,-1.78906 20.17187,-5.14844 C 474.32422,152.1875 492,203.46484 492,256 c 0,130.13281 -105.86719,236 -236,236 -15.66406,0 -31.32812,-1.54297 -46.55078,-4.58984 -5.41406,-1.08204 -10.68359,2.42968 -11.76953,7.84375 -1.08203,5.41796 2.42969,10.68359 7.84375,11.76953 C 222.03516,510.32422 239.01953,512 256,512 324.37891,512 388.66797,485.37109 437.01953,437.01953 485.37109,388.66797 512,324.37891 512,256 512,198.47656 492.46484,142.33984 456.90234,97.335938 Z M 422.44899,73.221832 v 0 0 0 0 0 z"
     id="path4"
     style="fill:#acb0b9;fill-opacity:1"
     sodipodi:nodetypes="ccscssscsscccsssccccccccc" />
  <path
     d="m214.734375 428c0 5.523438 4.480469 10 10 10h62.527344c5.523437 0 10-4.476562 10-10v-19.386719c13.148437-3.539062 25.71875-8.75 37.53125-15.554687l13.6875 13.6875c1.875 1.875 4.417969 2.929687 7.074219 2.929687 2.648437 0 5.195312-1.054687 7.070312-2.933593l44.195312-44.226563c3.902344-3.90625 3.902344-10.238281 0-14.140625l-13.671874-13.671875c6.804687-11.8125 12.015624-24.382813 15.554687-37.53125h19.3125c5.523437 0 10-4.476563 10-10v-62.527344c0-5.523437-4.476563-10-10-10h-19.316406c-3.539063-13.144531-8.746094-25.714843-15.550781-37.527343l13.597656-13.597657c1.875-1.875 2.929687-4.421875 2.929687-7.074219-.003906-2.652343-1.058593-5.199218-2.933593-7.074218l-44.230469-44.195313c-3.902344-3.902343-10.234375-3.902343-14.140625.003907l-13.578125 13.582031c-11.8125-6.804688-24.382813-12.015625-37.53125-15.554688v-19.207031c0-5.523438-4.476563-10-10-10h-62.527344c-5.519531 0-10 4.476562-10 10v19.210938c-13.144531 3.535156-25.714844 8.746093-37.527344 15.550781l-13.582031-13.582031c-3.902344-3.902344-10.234375-3.90625-14.140625-.003907l-44.226563 44.199219c-1.878906 1.875-2.933593 4.417969-2.933593 7.070312 0 2.652344 1.054687 5.199219 2.929687 7.074219l13.597656 13.597657c-6.804687 11.8125-12.015624 24.378906-15.554687 37.527343h-19.277344c-5.523437 0-10 4.476563-10 9.996094l-.035156 62.527344c-.003906 2.652343 1.050781 5.199219 2.925781 7.074219s4.417969 2.929687 7.074219 2.929687h19.3125c3.539063 13.148437 8.75 25.71875 15.554687 37.53125l-13.671874 13.671875c-3.902344 3.902344-3.90625 10.234375 0 14.140625l44.195312 44.226563c1.875 1.875 4.417969 2.933593 7.070312 2.933593h.003907c2.652343 0 5.195312-1.054687 7.070312-2.929687l13.683594-13.6875c11.816406 6.804687 24.386719 12.015625 37.53125 15.554687zm-33.609375-55.972656c-3.957031-2.558594-9.164062-2.003906-12.5 1.328125l-12.175781 12.175781-30.058594-30.082031 12.164063-12.167969c3.332031-3.332031 3.886718-8.539062 1.328124-12.496094-9.066406-14.03125-15.441406-29.410156-18.941406-45.714844-.992187-4.605468-5.0625-7.898437-9.777344-7.898437h-17.175781l.023438-42.527344h17.152343c4.714844 0 8.785157-3.289062 9.777344-7.898437 3.5-16.300782 9.875-31.679688 18.941406-45.710938 2.558594-3.957031 2.003907-9.164062-1.328124-12.496094l-12.085938-12.089843 30.082031-30.058594 12.074219 12.078125c3.335938 3.332031 8.539062 3.882812 12.5 1.328125 14.027344-9.066406 29.40625-15.441406 45.710938-18.941406 4.605468-.992188 7.898437-5.066407 7.898437-9.777344v-17.078125h42.527344v17.074219c0 4.714843 3.289062 8.789062 7.898437 9.777343 16.300782 3.503907 31.683594 9.875 45.710938 18.941407 3.957031 2.558593 9.164062 2.007812 12.496094-1.328125l12.078124-12.074219 30.082032 30.058594-12.085938 12.085937c-3.335937 3.335938-3.886718 8.542969-1.328125 12.5 9.066407 14.03125 15.4375 29.410156 18.941407 45.710938.988281 4.609375 5.0625 7.898437 9.777343 7.898437h17.183594v42.527344h-17.183594c-4.714843 0-8.785156 3.292969-9.777343 7.898437-3.5 16.300782-9.875 31.683594-18.941407 45.710938-2.558593 3.960938-2.003906 9.167969 1.328125 12.5l12.164063 12.164062-30.058594 30.082032-12.175781-12.171875c-3.335938-3.335938-8.542969-3.886719-12.5-1.328125-14.03125 9.066406-29.410156 15.4375-45.710938 18.941406-4.609375.992188-7.898437 5.0625-7.898437 9.777344v17.253906h-42.527344v-17.253906c0-4.710938-3.292969-8.785156-7.898437-9.777344-16.300782-3.5-31.679688-9.875-45.710938-18.941406zm0 0"
     id="path6"
     style="fill:#acb0b9;fill-opacity:1" />
  <path
     d="m338.628906 256c0-45.5625-37.066406-82.628906-82.628906-82.628906s-82.628906 37.066406-82.628906 82.628906 37.066406 82.628906 82.628906 82.628906 82.628906-37.066406 82.628906-82.628906zm-145.257812 0c0-34.535156 28.09375-62.628906 62.628906-62.628906s62.628906 28.097656 62.628906 62.628906-28.09375 62.628906-62.628906 62.628906-62.628906-28.09375-62.628906-62.628906zm0 0"
     id="path8"
     style="fill:#acb0b9;fill-opacity:1" />
  <path
     d="m348.078125 37.820312c2.632813 0 5.210937-1.070312 7.070313-2.929687 1.859374-1.871094 2.929687-4.449219 2.929687-7.082031 0-2.617188-1.066406-5.199219-2.929687-7.070313-1.859376-1.859375-4.4375-2.929687-7.070313-2.929687-2.640625 0-5.207031 1.070312-7.066406 2.929687-1.863281 1.871094-2.933594 4.441407-2.933594 7.070313 0 2.640625 1.070313 5.210937 2.933594 7.082031 1.859375 1.859375 4.425781 2.929687 7.066406 2.929687zm0 0"
     id="path10"
     style="fill:#acb0b9;fill-opacity:1" />
  <path
     d="m164.359375 474.359375c-2.628906 0-5.210937 1.070313-7.070313 2.929687-1.859374 1.859376-2.929687 4.441407-2.929687 7.070313 0 2.640625 1.070313 5.210937 2.929687 7.070313 1.859376 1.859374 4.441407 2.929687 7.070313 2.929687s5.210937-1.070313 7.070313-2.929687c1.859374-1.859376 2.929687-4.441407 2.929687-7.070313s-1.070313-5.210937-2.929687-7.070313c-1.859376-1.859374-4.441407-2.929687-7.070313-2.929687zm0 0"
     id="path12"
     style="fill:#acb0b9;fill-opacity:1" />
</svg>
