<?xml version="1.0" encoding="UTF-8" standalone="no"?>
<svg
   xmlns:dc="http://purl.org/dc/elements/1.1/"
   xmlns:cc="http://creativecommons.org/ns#"
   xmlns:rdf="http://www.w3.org/1999/02/22-rdf-syntax-ns#"
   xmlns:svg="http://www.w3.org/2000/svg"
   xmlns="http://www.w3.org/2000/svg"
   xmlns:sodipodi="http://sodipodi.sourceforge.net/DTD/sodipodi-0.dtd"
   xmlns:inkscape="http://www.inkscape.org/namespaces/inkscape"
   id="Capa_1"
   enable-background="new 0 0 512 512"
   height="512"
   viewBox="0 0 512 512"
   width="512"
   version="1.1"
   sodipodi:docname="team.svg"
   inkscape:version="1.0.2 (e86c870879, 2021-01-15)">
  <metadata
     id="metadata21">
    <rdf:RDF>
      <cc:Work
         rdf:about="">
        <dc:format>image/svg+xml</dc:format>
        <dc:type
           rdf:resource="http://purl.org/dc/dcmitype/StillImage" />
      </cc:Work>
    </rdf:RDF>
  </metadata>
  <defs
     id="defs19" />
  <sodipodi:namedview
     pagecolor="#ffffff"
     bordercolor="#666666"
     borderopacity="1"
     objecttolerance="10"
     gridtolerance="10"
     guidetolerance="10"
     inkscape:pageopacity="0"
     inkscape:pageshadow="2"
     inkscape:window-width="1366"
     inkscape:window-height="745"
     id="namedview17"
     showgrid="false"
     inkscape:zoom="0.56445313"
     inkscape:cx="332.98042"
     inkscape:cy="273.82613"
     inkscape:window-x="-8"
     inkscape:window-y="-8"
     inkscape:window-maximized="1"
     inkscape:current-layer="Capa_1" />
  <g
     id="g14"
     style="fill:#acb0b9;fill-opacity:1">
    <path
       d="m15 512h153.077c8.284 0 15-6.716 15-15v-16.712c0-34.677-19.383-64.912-47.883-80.441 10.122-10.746 16.345-25.204 16.345-41.097 0-33.084-26.916-60-60-60s-60 26.916-60 60c0 15.893 6.223 30.351 16.345 41.097-28.501 15.529-47.884 45.764-47.884 80.441v16.712c0 8.284 6.716 15 15 15zm46.539-153.25c0-16.542 13.458-30 30-30s30 13.458 30 30-13.458 30-30 30-30-13.458-30-30zm30 60c32.137 0 61.538 25.193 61.538 63.25h-123.077c0-37.859 29.23-63.25 61.539-63.25z"
       id="path2"
       style="fill:#acb0b9;fill-opacity:1" />
    <path
       d="m464.117 399.847c10.122-10.746 16.345-25.204 16.345-41.097 0-33.084-26.916-60-60-60s-60 26.916-60 60c0 15.893 6.223 30.351 16.345 41.097-28.5 15.529-47.883 45.763-47.883 80.441v16.712c0 8.284 6.716 15 15 15h153.076c8.284 0 15-6.716 15-15v-16.712c0-34.677-19.383-64.912-47.883-80.441zm-73.656-41.097c0-16.542 13.458-30 30-30s30 13.458 30 30-13.458 30-30 30-30-13.458-30-30zm91.539 123.25h-123.077c0-37.859 29.23-63.25 61.538-63.25 32.136 0 61.539 25.19 61.539 63.25z"
       id="path4"
       style="fill:#acb0b9;fill-opacity:1" />
    <path
       d="m347.539 198.25v-16.712c0-34.677-19.383-64.912-47.883-80.441 10.121-10.746 16.344-25.204 16.344-41.097 0-33.084-26.916-60-60-60s-60 26.916-60 60c0 15.893 6.223 30.351 16.345 41.097-28.5 15.529-47.883 45.764-47.883 80.441v16.712c0 8.284 6.716 15 15 15h153.077c8.284 0 15-6.716 15-15zm-121.539-138.25c0-16.542 13.458-30 30-30s30 13.458 30 30-13.458 30-30 30-30-13.458-30-30zm91.539 123.25h-123.078c0-37.859 29.23-63.25 61.539-63.25 32.135 0 61.539 25.19 61.539 63.25z"
       id="path6"
       style="fill:#acb0b9;fill-opacity:1" />
    <path
       d="m316.599 379.049c-19.597 6.438-40.262 9.701-61.418 9.701-20.415 0-40.406-3.049-59.417-9.062-7.901-2.495-16.328 1.88-18.825 9.778-2.498 7.898 1.88 16.327 9.778 18.825 21.94 6.939 44.975 10.458 68.463 10.458 24.343 0 48.157-3.768 70.781-11.199 7.871-2.585 12.155-11.062 9.57-18.932s-11.061-12.156-18.932-9.569z"
       id="path8"
       style="fill:#acb0b9;fill-opacity:1" />
    <path
       d="m117.73 124.31c-16.566 15.969-30.649 34.533-41.858 55.178-11.616 21.395-19.668 44.121-23.932 67.548-1.671 9.181 5.374 17.688 14.775 17.688 7.108 0 13.422-5.075 14.74-12.316 3.694-20.293 10.686-40.011 20.781-58.605 9.743-17.943 21.96-34.057 36.314-47.893 5.964-5.749 6.139-15.245.39-21.21-5.75-5.964-15.245-6.139-21.21-.39z"
       id="path10"
       style="fill:#acb0b9;fill-opacity:1" />
    <path
       d="m394.27 124.31c-5.965-5.75-15.461-5.574-21.21.39-5.749 5.965-5.575 15.461.39 21.21 14.354 13.836 26.572 29.949 36.314 47.893 10.096 18.595 17.087 38.313 20.781 58.605 1.482 8.141 9.282 13.555 17.443 12.071 8.15-1.483 13.555-9.294 12.072-17.443-4.264-23.427-12.316-46.153-23.932-67.548-11.209-20.645-25.292-39.21-41.858-55.178z"
       id="path12"
       style="fill:#acb0b9;fill-opacity:1" />
  </g>
</svg>
