<?xml version="1.0" encoding="UTF-8" standalone="no"?>
<svg
   xmlns:dc="http://purl.org/dc/elements/1.1/"
   xmlns:cc="http://creativecommons.org/ns#"
   xmlns:rdf="http://www.w3.org/1999/02/22-rdf-syntax-ns#"
   xmlns:svg="http://www.w3.org/2000/svg"
   xmlns="http://www.w3.org/2000/svg"
   xmlns:sodipodi="http://sodipodi.sourceforge.net/DTD/sodipodi-0.dtd"
   xmlns:inkscape="http://www.inkscape.org/namespaces/inkscape"
   id="Capa_1"
   enable-background="new 0 0 512 512"
   height="512"
   viewBox="0 0 512 512"
   width="512"
   version="1.1"
   sodipodi:docname="videos.svg"
   inkscape:version="1.0.2 (e86c870879, 2021-01-15)">
  <metadata
     id="metadata13">
    <rdf:RDF>
      <cc:Work
         rdf:about="">
        <dc:format>image/svg+xml</dc:format>
        <dc:type
           rdf:resource="http://purl.org/dc/dcmitype/StillImage" />
      </cc:Work>
    </rdf:RDF>
  </metadata>
  <defs
     id="defs11" />
  <sodipodi:namedview
     pagecolor="#ffffff"
     bordercolor="#666666"
     borderopacity="1"
     objecttolerance="10"
     gridtolerance="10"
     guidetolerance="10"
     inkscape:pageopacity="0"
     inkscape:pageshadow="2"
     inkscape:window-width="1366"
     inkscape:window-height="745"
     id="namedview9"
     showgrid="false"
     inkscape:zoom="0.39912863"
     inkscape:cx="-311.51829"
     inkscape:cy="356.42769"
     inkscape:window-x="-8"
     inkscape:window-y="-8"
     inkscape:window-maximized="1"
     inkscape:current-layer="Capa_1"
     inkscape:document-rotation="0" />
  <path
     d="m 338.95,243.28 -120,-75 c -4.625,-2.89 -10.453,-3.043 -15.222,-0.4 -4.77,2.643 -7.729,7.667 -7.729,13.12 v 150 c 0,5.453 2.959,10.476 7.729,13.12 2.266,1.256 4.77,1.88 7.271,1.88 2.763,0 5.522,-0.763 7.95,-2.28 l 120,-75 c 4.386,-2.741 7.05,-7.548 7.05,-12.72 0,-5.172 -2.663,-9.979 -7.049,-12.72 z M 226,303.936 V 208.063 L 302.698,256 Z"
     id="path2"
     style="fill:#acb0b9;fill-opacity:1" />
  <path
     d="M 437,61 H 75 C 33.645,61 0,94.645 0,136 v 240 c 0,41.355 33.645,75 75,75 h 362 c 41.355,0 75,-33.645 75,-75 V 136 C 512,94.645 478.355,61 437,61 Z m 45,315 c 0,24.813 -20.187,45 -45,45 H 75 C 50.187,421 30,400.813 30,376 V 136 C 30,111.187 50.187,91 75,91 h 362 c 24.813,0 45,20.187 45,45 z"
     id="path4"
     style="fill:#acb0b9;fill-opacity:1" />
</svg>
